<svg width="862" height="502" viewBox="0 0 862 502" fill="none" xmlns="http://www.w3.org/2000/svg">
<path fill-rule="evenodd" clip-rule="evenodd" d="M508.302 299.15C538.524 342.343 586.665 434.558 509.616 459.546C460.587 475.439 389.719 456.257 363.278 409.519C330.142 350.939 387.135 301.301 435.695 278.904C449.671 272.452 464.236 267.122 479.152 262.6C489.547 274.221 499.354 286.362 508.302 299.15M860.149 239.79C745.823 206.411 614.416 197.096 496.164 225.541C476.835 206.074 457.052 189.094 439.603 175.705C338.227 97.9292 199.024 44.9215 70.993 39.0342C57.0015 38.3955 50.96 54.2369 55.9518 64.6094C52.5089 59.1773 49.1322 53.701 45.8215 48.1808C60.5618 40.1279 76.0948 34.6444 93.2723 31.5392C103.77 29.6453 115.449 30.651 125.616 27.9863C131.672 26.4007 131.936 21.9448 138.77 21.1153C140.951 20.8511 142.294 17.9001 139.989 16.6301C133.676 13.1579 132.076 7.2853 125.616 4.07737C115.441 -0.980422 95.68 -0.202299 84.8891 0.54646C58.0145 2.41102 32.5714 11.4842 9.36717 24.8518C-0.322662 30.4381 -2.18722 42.11 2.35672 51.6016C13.4927 74.8718 27.932 96.5638 43.5679 117.03C57.1189 134.758 71.3674 155.775 91.4371 166.25C107.168 174.472 123.656 157.991 115.441 142.238C105.421 123.013 87.2161 108.302 74.0688 91.0069C68.4311 83.5927 63.2705 75.9289 58.2641 68.1697C60.2388 70.3646 62.9255 72.0456 66.4197 72.8311C179.314 98.2008 287.289 119.276 386.221 183.662C410.526 199.467 433.576 217.43 454.673 237.419C452.148 238.248 449.564 238.975 447.039 239.841C364.088 268.5 270.266 357.257 345.105 445.508C398.216 508.154 550.008 534.742 582.623 436.691C603.464 374.045 567.494 306.569 520.726 252.13C557.562 244.561 595.448 240.649 631.638 237.316C707.079 230.357 783.893 234.189 858.864 244.437C861.837 244.84 863.225 240.685 860.149 239.79" fill="black"/>
</svg>
