<svg width="30" height="51" viewBox="0 0 30 51" fill="none" xmlns="http://www.w3.org/2000/svg">
<path d="M8.76736 3.19185C5.44575 1.84683 0.795494 3.19185 0.795494 3.19185C0.795494 3.19185 0.130617 51.6123 0.795494 50.2673C1.46037 48.9223 4.1171 47.5773 8.76736 50.2673C13.4176 52.9573 8.76736 31.4371 8.76736 31.4371V27.4021V25.3846V23.367C8.76736 23.367 12.089 4.53688 8.76736 3.19185Z" fill="#020202"/>
<path d="M22.7181 3.19185C21.3895 11.9344 8.76736 23.367 8.76736 23.367V25.3846V27.4021V31.4371C8.76736 31.4371 23.3824 38.1622 22.0538 46.2323C20.7251 54.3023 28.697 38.1622 28.697 38.1622C28.697 38.1622 16.7387 28.7471 15.4106 26.0571C14.0825 23.3671 25.3754 7.22688 28.697 8.5719C32.0186 9.91693 24.0467 -5.55068 22.7181 3.19185Z" fill="black"/>
<path d="M8.76736 23.367C8.76736 23.367 12.089 4.53688 8.76736 3.19185C5.44575 1.84683 0.795494 3.19185 0.795494 3.19185C0.795494 3.19185 0.130617 51.6123 0.795494 50.2673C1.46037 48.9223 4.1171 47.5773 8.76736 50.2673C13.4176 52.9573 8.76736 31.4371 8.76736 31.4371M8.76736 23.367C8.76736 23.367 21.3895 11.9344 22.7181 3.19185C24.0467 -5.55068 32.0186 9.91693 28.697 8.5719C25.3754 7.22688 14.0825 23.3671 15.4106 26.0571C16.7387 28.7471 28.697 38.1622 28.697 38.1622C28.697 38.1622 20.7251 54.3023 22.0538 46.2323C23.3824 38.1622 8.76736 31.4371 8.76736 31.4371M8.76736 23.367V25.3846V27.4021V31.4371" stroke="black"/>
</svg>
