<svg width="821" height="1065" viewBox="0 0 821 1065" fill="none" xmlns="http://www.w3.org/2000/svg">
<path d="M533.578 513.226C462.615 567.866 539.264 599.496 449.704 599.101C360.143 598.705 273.266 568.49 202.789 513.226L309.051 463.414C314.111 461.035 318.968 458.245 323.573 455.072C324.97 454.112 326.368 453.107 327.7 452.059C339.265 443.21 348.784 431.97 355.608 419.106C360.767 409.222 364.195 398.527 365.741 387.485C366.807 380.32 367.348 373.087 367.357 365.844C367.357 353.353 366.68 340.862 366.549 328.349C366.462 321.419 366.389 314.496 366.331 307.581L370.698 309.765L382.054 315.639L387.317 316.534L448.2 326.886L516.159 338.459L518.211 408.34L518.888 431.182L519.216 442.276V442.996L537.078 458.588L533.578 513.226Z" fill="#845161"/>
<path d="M518.779 443.018C511.274 444.31 503.552 443.113 496.789 439.611L366.484 333.087C366.331 328.152 366.2 333.328 366.134 328.392C366.047 321.463 365.974 314.54 365.916 307.625L370.284 309.809L381.639 315.683L386.902 316.578L447.785 326.929L515.744 338.503L517.797 408.384L518.474 431.226L518.801 442.319V443.04L518.779 443.018Z" fill="#845161"/>
<path d="M586.039 248.772C582.644 252.323 578.922 255.548 574.924 258.403C552.213 274.846 521.902 280.24 496.003 289.106C485.084 292.841 366.68 326.493 366.68 333.808C366.68 332.214 355.084 320.706 340.475 306.729C315.823 283.119 298.637 252.796 291.044 219.516C283.452 186.236 285.787 151.46 297.761 119.494C321.585 56.885 397.537 13.7339 461.15 3.75407C491.439 -0.984695 527.383 -3.62705 555.357 10.895C569.661 18.3416 581.563 29.1949 592.481 41.2275C595.888 45.0272 599.193 48.907 602.396 52.8669C603.771 54.5266 605.125 56.1862 606.457 57.8677C656.182 120.323 638.559 193.589 586.039 248.772Z" fill="url(#paint0_linear_12_206)"/>
<path d="M586.039 248.772C582.644 252.323 578.922 255.548 574.924 258.403C573.991 256.778 573.153 255.101 572.412 253.38C566.647 240.277 563.677 226.061 561.494 211.889C558.093 191.263 555.768 170.475 554.527 149.608C552.54 116.109 538.236 99.4902 566.691 73.3724C576.931 63.9878 589.125 56.9918 602.395 52.8887C603.771 54.5483 605.125 56.208 606.457 57.8895C656.182 120.323 638.559 193.589 586.039 248.772Z" fill="url(#paint1_linear_12_206)"/>
<path d="M344.843 283.603C365.346 283.603 381.967 266.982 381.967 246.479C381.967 225.976 365.346 209.355 344.843 209.355C324.34 209.355 307.719 225.976 307.719 246.479C307.719 266.982 324.34 283.603 344.843 283.603Z" fill="#845161"/>
<path d="M356.635 279.716C374.991 279.716 389.872 264.836 389.872 246.479C389.872 228.123 374.991 213.243 356.635 213.243C338.279 213.243 323.398 228.123 323.398 246.479C323.398 264.836 338.279 279.716 356.635 279.716Z" fill="#69303A"/>
<path d="M359.408 211.277C361.221 234.993 361.155 263.95 361.788 272.423C363.434 293.663 365.064 314.897 366.68 336.123L511.769 420.875C521.819 424.631 532.908 424.509 542.873 420.532C552.837 416.555 560.963 409.009 565.665 399.365C586.541 356.607 620.04 289.085 615.629 263.971C609.078 226.847 591.608 213.745 591.608 213.745L598.88 170.201C606.239 125.936 591.062 84.0292 539.35 79.1813C528.431 78.1768 516.268 80.2513 509.782 88.9646C492.312 112.462 502.379 141.375 476.152 163.213C444.313 189.483 373.275 200.948 356.635 179.744C356.635 179.744 358.163 194.746 359.408 211.277Z" fill="#845161"/>
<path d="M468.291 303.912C478.784 315.63 493.167 323.148 508.778 325.073" stroke="#00214E" stroke-width="2.18376" stroke-miterlimit="10"/>
<path d="M519.871 200.817C519.697 201.581 549.046 279.716 549.046 279.716L509.87 281.616" stroke="#00214E" stroke-width="2.18376" stroke-miterlimit="10"/>
<path d="M466.456 261.526C484.74 261.526 499.562 246.704 499.562 228.42C499.562 210.136 484.74 195.314 466.456 195.314C448.173 195.314 433.351 210.136 433.351 228.42C433.351 246.704 448.173 261.526 466.456 261.526Z" fill="#00214E"/>
<path d="M578.615 256.175C596.899 256.175 611.721 241.353 611.721 223.069C611.721 204.786 596.899 189.964 578.615 189.964C560.331 189.964 545.509 204.786 545.509 223.069C545.509 241.353 560.331 256.175 578.615 256.175Z" fill="#00214E"/>
<path d="M493.229 230.363L548.981 225.603" stroke="#00214E" stroke-width="2.18376" stroke-miterlimit="10"/>
<path d="M427.105 185.662C447.32 181.481 468.114 180.889 488.534 183.915" stroke="#00214E" stroke-width="2.18376" stroke-miterlimit="10"/>
<path d="M556.056 185.945C568.536 183.037 581.401 182.145 594.163 183.303" stroke="#00214E" stroke-width="2.18376" stroke-miterlimit="10"/>
<path d="M456.87 210.207C470.19 210.207 470.19 230.691 456.87 230.8H456.258C442.915 230.8 442.915 210.316 456.258 210.207H456.848H456.87Z" fill="#00214E"/>
<path d="M566.342 207.172C578.702 207.281 578.702 226.17 566.342 226.28H565.774C553.414 226.28 553.414 207.281 565.774 207.172H566.342Z" fill="#00214E"/>
<path fill-rule="evenodd" clip-rule="evenodd" d="M661.366 551.628C651.586 523.46 643.546 511.714 628.923 502.493C615.245 493.868 595.667 487.035 567.483 482.747C538.208 479.469 536.436 465.4 527.648 443.089C525.07 436.378 514.453 435.097 510.254 440.241C509.572 439.627 508.866 439.069 508.141 438.569C508.538 435.286 502.861 426.222 502.82 423.103C502.393 390.549 489.969 374.821 461.294 370.194C455.058 369.187 413.251 370.529 407.362 372.387C381.617 380.509 368.221 403.953 362.973 429.165C355.427 439.661 347.792 446.221 335.321 450.112C315.717 453.467 343.334 715.471 388.254 871C407.527 937.73 751.896 805.021 733.708 772.033C735.546 765.724 730.976 759.124 732.401 752.633C733.432 747.935 736.742 745.846 738.164 741.174C740.165 734.6 736.933 726.08 733.747 719.637C732.402 716.413 735.356 712.72 736.018 709.327C739.161 693.323 729.62 695.204 721.962 685C722.064 684.962 723.362 677.335 723.356 677.373C724.057 671.939 720.929 665.181 718.302 660.808C716.526 657.852 713.033 656.123 709.714 656.641C712.358 645.753 716.016 636.619 719.899 626.061C726.77 607.449 733.188 588.018 743.707 570.954C748.014 563.966 743.75 557.956 736.013 557.888C710.969 557.667 686.072 555.551 661.366 551.628Z" fill="#845161"/>
<path fill-rule="evenodd" clip-rule="evenodd" d="M360.554 449.446L543.353 470.029L628.932 502.491L643.159 511.603L571.736 649.05L449.008 676.59L422.568 755.238L434.877 841.755L635.338 808.929L721.81 794.802L747.516 871.296L745.965 903.379L741.673 919.826L529.367 985.462C529.367 985.462 418.708 981.044 399.211 982.032C379.714 983.021 237.664 1003.58 237.664 1003.58L204.367 1001.95C204.367 1001.95 126.317 933.338 113.233 908.175C100.149 883.012 65.0628 727.796 65.0628 727.796L66.1452 703.618L119.087 547.846C119.087 547.846 127.045 540.229 136.864 527.449C146.683 514.669 360.554 449.446 360.554 449.446Z" fill="#9DDADB"/>
<path fill-rule="evenodd" clip-rule="evenodd" d="M701.531 652.858C685.244 654.465 669.133 658.937 654.798 666.286C648.933 669.298 643.717 673.48 642.546 679.985C641.956 683.306 642.382 686.685 643.037 689.976C643.532 692.469 643.829 695.668 646.268 697.249C646.684 697.516 647.123 697.714 647.575 697.853C642.278 700.436 637.273 703.473 632.852 706.563C628.811 709.388 624.747 713.631 623.106 718.268C622.909 717.761 622.715 717.288 622.522 716.839C618.586 707.813 612.968 700.542 604.58 695.886C603.455 692.81 592.742 679.866 583.666 680.835C573.726 681.89 565.748 682.981 557.016 687.741C553.723 687.84 550.445 688.049 547.21 688.348C546.653 688.393 546.728 689.103 547.263 689.134C549.916 689.314 552.571 689.527 555.23 689.799C561.547 690.42 567.864 691.295 574.064 692.465C581.502 693.869 589.192 695.268 596.241 698.022C609.912 703.376 619.185 718.714 618.423 732.507C618.295 734.769 617.825 741.611 614.451 741.079C611.601 740.63 610.112 735.184 608.993 733.197C605.997 727.922 601.018 724.629 595.171 722.526C588.303 720.05 581.028 718.511 573.957 716.649C569.953 715.588 565.948 714.527 561.934 713.475C557.828 712.387 553.886 710.797 549.667 711.918C547.117 712.599 547.015 715.504 548.577 717.088C550.955 719.502 554.286 720.08 557.537 720.958C561.829 722.114 566.112 723.271 570.395 724.427C577.016 726.211 583.923 727.65 590.414 729.916L590.245 730.349C589.721 730.24 589.15 730.752 589.29 731.339C590.605 736.759 592.346 743.014 591.255 748.565C590.395 752.967 586.653 757.983 581.287 756.974C582.069 756.222 582.292 754.981 581.657 753.877C579.283 749.791 550.772 734.632 548.744 740.901C548.678 741.124 548.94 741.272 549.137 741.229C551.191 740.717 554.903 743.87 556.641 744.842C559.15 746.242 561.692 747.605 564.178 749.048C566.897 750.624 569.559 752.286 572.162 754.011C574.207 755.367 575.778 756.804 578.061 757.427C576.926 758.009 576.062 759.028 575.75 760.291C574.959 763.579 573.198 766.425 569.915 768.025C566.473 769.691 562.417 768.956 558.711 769.509C553.661 770.248 549.379 772.739 545.894 776.164C538.575 783.369 535.482 795.569 524.821 799.34C518.453 801.589 511.162 800.745 504.524 800.209C497.114 799.609 489.907 799.203 482.576 800.592C475.558 801.925 469.017 804.562 462.736 807.696C456.848 810.632 450.343 813.948 445.227 818.142C443.903 814.995 442.572 811.882 441.503 808.654C438.983 801.024 437.37 793.201 436.573 785.269C435.821 777.718 435.759 770.098 435.945 762.531C436.035 758.753 436.323 754.981 436.412 751.203C436.438 750.252 436.55 749.228 436.617 748.208C445.866 742.404 455.684 737.819 465.576 733.111C465.603 733.101 465.629 733.082 465.656 733.073C465.962 732.921 466.26 732.78 466.567 732.637C466.556 732.62 466.546 732.604 466.527 732.587C467.645 731.861 468.396 730.932 468.815 729.91C482.863 720.047 494.281 706.977 502.441 691.993C505.861 685.713 509.121 679.213 513.773 673.627C518.724 667.667 524.832 663.965 532.554 661.81C541.58 659.284 550.942 657.57 560.285 656.392C565.387 655.752 571.078 654.869 576.668 654.612C580.563 654.439 584.395 654.559 587.954 655.285C593.226 656.358 596.503 659.899 600.008 663.468C603.358 666.895 606.692 670.33 609.845 673.919C612.831 677.32 615.674 680.847 618.186 684.57C619.693 686.8 621.105 689.104 622.324 691.492C622.751 692.337 623.304 693.291 623.59 694.176C623.876 695.069 623.526 696.046 624.607 695.991C620.15 696.275 617.888 706.857 622.306 706.387C628.517 705.731 631.179 698.563 629.538 692.407C626.611 681.423 613.939 668.621 611.42 665.9C605.851 659.89 599.993 651.978 591.559 649.48C591.439 649.444 591.31 649.409 591.191 649.38C593.445 647.129 595.165 644.481 596.802 641.794C598.487 639.028 600.506 635.856 600.906 632.656C601.158 630.617 598.404 629.602 597.252 631.433C595.578 634.105 594.906 637.412 593.718 640.314C592.506 643.258 590.976 646.058 589.82 649.025C586.503 648.252 582.959 648 579.372 648.038C583.501 642.079 590.469 630.632 591.303 629.165C595.131 622.373 598.739 615.39 602.166 608.405C605.869 600.839 608.95 593 612.468 585.359C614.464 581.026 616.475 576.658 618.732 572.439C619.512 570.991 620.354 569.541 621.332 568.211C621.522 567.948 621.769 567.723 621.997 567.473C622.266 567.315 622.544 567.14 622.7 567.048C624.106 566.188 624.498 564.337 625.446 563.126C626.962 561.176 628.875 560.858 631.343 560.707C636.602 560.389 641.897 560.316 647.16 560.184C654.897 559.995 662.63 559.891 670.37 559.88C672.713 559.88 675.046 559.881 677.389 559.898C688.651 559.955 699.917 560.205 711.169 560.644C721.124 561.029 731.116 561.973 741.067 562.164C729.671 592.721 716.778 622.81 701.85 651.977C701.699 652.272 701.592 652.566 701.531 652.858ZM632.314 733.603C630.214 734.644 628.192 735.907 626.325 737.326C626.511 735.255 626.446 733.087 626.21 730.919C627.932 732.46 630.059 733.285 632.314 733.603ZM721.18 677.528C721.028 677.551 720.889 677.635 720.826 677.782C718.224 683.723 719.912 690.125 725.103 694.416C727.822 696.653 733.58 699.04 733.661 702.937C733.72 706.089 730.249 708.911 728.864 711.585C727.576 714.075 727.214 716.757 728.554 719.319C730.267 722.598 734.511 723.722 736.157 726.947C738.241 731.038 735.653 736.233 733.843 739.979C732.16 743.448 729.917 746.946 728.518 750.596C717.892 756.487 693.617 767.436 690.652 768.13C687.039 768.982 683.414 769.802 679.776 770.581C672.797 772.087 665.795 773.511 658.766 774.809C654.764 775.546 650.753 776.275 646.735 776.895C643.226 777.429 639.275 778.113 636.259 775.765C630.179 771.018 632.827 762.412 636.116 757.14C636.182 757.035 636.175 756.941 636.143 756.858C639.517 755.932 642.873 754.88 646.238 754.09C652.71 752.575 659.239 751.244 665.785 750.021C679.235 747.515 692.816 745.622 706.378 743.722C709.737 743.246 709.437 738.258 706.042 738.727C686.554 741.403 666.962 743.999 647.861 748.522C643.072 749.646 638.326 750.888 633.617 752.254C631.39 752.894 629.021 753.837 626.653 753.982C626.509 753.99 626.364 753.997 626.22 753.995C621.569 754.096 620.642 750.403 622.984 747.172C623.273 746.775 623.572 746.378 623.881 745.999C628.048 740.732 633.435 737.083 638.986 733.308C645.41 732.151 651.748 729.981 658.001 728.307C673.439 724.165 688.876 720.024 704.323 715.891C707.351 715.076 705.746 710.713 702.717 711.52C690.992 714.651 679.266 717.781 667.54 720.911L650.379 725.497C646.95 726.408 642.705 728.107 638.649 728.848C636.649 729.212 634.695 729.345 632.903 729.046C627.113 728.068 626.374 721.397 628.567 717.299C631.024 712.698 636.045 709.644 640.497 706.882C648.214 702.09 656.527 698.505 664.609 694.448C666.066 694.069 667.524 693.69 668.981 693.311C677.459 691.1 687.223 689.731 695.097 686.067C697.456 684.98 695.889 681.464 693.496 681.636C687.223 682.082 680.795 684.511 674.741 686.064C668.191 687.754 661.63 689.435 655.079 691.115C654.421 691.284 650.554 692.668 649.941 692.436C649.551 692.286 649.333 691.06 649.152 690.254C648.566 687.604 648.08 684.814 648.341 682.112C648.91 676.053 654.064 672.959 659.315 670.378C671.01 664.637 683.996 660.756 697.049 658.805C700.057 658.355 703.072 658.016 706.112 657.768C709.682 657.485 712.59 656.744 714.624 659.957C717.823 665.019 719.842 671.634 721.18 677.528ZM717.178 867.135C713.981 858.759 714.082 849.637 711.7 841.05C710.471 836.619 708.906 832.241 707.229 827.94C705.875 824.465 703.761 820.804 703.302 817.13C703.273 816.884 703.572 816.727 703.793 816.829C707.628 818.629 710.76 822.783 713.098 826.048C715.897 829.955 718.111 834.083 719.967 838.447C723.665 847.141 726.931 857.689 723.532 866.813C722.52 869.529 718.375 870.272 717.178 867.135ZM619.135 936.743C615.053 934.383 611.963 930.95 608.435 927.962C604.965 925.023 609.74 919.983 613.211 922.923C616.221 925.472 618.904 928.711 622.38 930.72C624.053 931.686 624.922 933.542 623.986 935.28C623.157 936.813 620.803 937.707 619.135 936.743ZM590.708 839.519C597.649 836.263 604.456 832.756 611.784 830.293C616.164 828.82 618.494 835.251 614.141 836.714C607.391 838.984 601.132 842.175 594.74 845.172C590.636 847.097 586.577 841.456 590.708 839.519ZM515.202 841.313C513.185 837.363 520.045 835.269 522.033 839.163C524.322 843.645 526.892 847.995 529.181 852.477C531.197 856.427 524.338 858.522 522.35 854.627C520.061 850.145 517.49 845.796 515.202 841.313ZM446.248 925.733C445.184 927.246 443.298 928.132 441.398 927.197C439.806 926.412 438.715 924.168 439.793 922.637C442.94 918.167 446.135 913.747 449.905 909.714C452.96 906.444 458.378 910.97 455.325 914.236C451.959 917.838 449.059 921.741 446.248 925.733ZM405.118 473.782C408.57 475.734 411.643 478.162 414.649 480.668C418.143 483.582 413.366 488.621 409.872 485.707C407.339 483.595 404.784 481.45 401.873 479.805C400.191 478.854 399.338 476.97 400.268 475.245C401.101 473.7 403.44 472.834 405.118 473.782ZM520.678 577.096C519.044 580.704 517.591 584.234 517.754 588.233C517.934 592.589 510.724 592.957 510.545 588.598C510.331 583.366 512.081 578.73 514.222 573.999C516.034 569.995 522.482 573.109 520.678 577.096ZM554.496 487.699C558.209 485.079 562.209 490.756 558.53 493.353C555.546 495.457 552.562 497.563 549.579 499.669C545.868 502.287 541.867 496.611 545.546 494.015C548.529 491.91 551.513 489.804 554.496 487.699ZM392.559 649.215C392.187 653.545 385.116 652.06 385.485 647.771C386.055 641.143 386.855 634.59 388.326 628.087C389.289 623.832 396.363 625.271 395.399 629.532C393.928 636.035 393.128 642.588 392.559 649.215ZM372.5 727.948C367.854 728.091 367.397 721.33 372.044 721.187C376.25 721.057 380.448 721.884 384.563 722.627C389.14 723.454 387.658 730.07 383.085 729.244C379.607 728.615 376.056 727.839 372.5 727.948ZM373.684 884.437C372.139 885.245 370.547 885.983 368.982 886.756C365.848 888.303 362.716 889.852 359.586 891.404C353.063 894.637 346.544 897.879 340.033 901.131C326.998 907.641 313.845 913.951 300.773 920.4C287.444 926.976 274.155 933.629 260.885 940.311C254.634 943.459 248.326 946.505 242.034 949.58C236.653 952.21 230.083 956.661 224.029 957.356C223.717 957.392 223.588 957.026 223.754 956.827C225.886 954.26 229.454 952.65 232.366 950.904C235.34 949.12 238.378 947.43 241.401 945.719C247.702 942.149 254.013 938.604 260.384 935.145C273.13 928.229 285.904 921.356 298.681 914.491C311.712 907.49 324.723 900.446 337.887 893.663C344.085 890.469 350.289 887.284 356.498 884.107C359.862 882.386 363.228 880.667 366.594 878.951C368.048 878.21 369.483 877.417 370.975 876.745C372.957 875.851 374.515 875.934 376.582 875.341C379.954 874.374 381.711 878.383 379.202 880.295C377.136 881.869 376.081 883.179 373.684 884.437ZM330.225 956.21C329.371 954.561 330.782 952.432 332.462 951.923C334.475 951.314 336.195 952.397 337.056 954.06C339.336 958.468 342.431 962.462 346.29 965.773C349.739 968.73 344.966 973.772 341.514 970.812C336.678 966.663 333.07 961.71 330.225 956.21ZM287.502 849.473C284.008 846.559 288.785 841.52 292.278 844.434L302.212 852.722C305.707 855.638 300.929 860.677 297.436 857.762L287.502 849.473ZM190.679 840.052C184.085 842.24 176.365 844.336 172.147 849.943C171.941 850.217 171.543 849.899 171.659 849.63C176.755 837.933 193.3 833.082 204.672 828.498C212.716 825.255 221.007 822.484 229.386 819.959C227.92 810.887 229.61 800.999 229.816 791.887C230.035 782.159 230.09 772.414 229.799 762.681C229.503 752.753 228.921 742.772 227.905 732.877C226.894 723.019 224.869 713.334 223.608 703.521C223.486 702.573 224.896 702.455 225.254 703.227C229.407 712.181 231.6 722.222 233.401 731.794C235.256 741.655 236.316 751.528 236.837 761.514C237.372 771.782 237.425 782.05 237.241 792.322C237.154 797.191 237 802.056 236.873 806.924C236.776 810.638 236.863 814.313 236.3 817.933C241.359 816.49 246.434 815.11 251.495 813.762C267.633 809.467 283.856 805.418 299.906 800.845C307.785 798.601 315.525 795.998 323.36 793.638C330.737 791.416 338.505 788.782 346.151 787.57C348.88 787.136 349.467 790.644 347.728 791.933C341.746 796.373 333.626 799.665 326.551 802.339C319.451 805.022 312.02 807.07 304.698 809.162C289.428 813.526 273.968 817.246 258.539 821.085C243.132 824.921 227.693 828.735 212.51 833.273C205.197 835.458 197.911 837.65 190.679 840.052ZM141.677 661.035C137.812 663.448 133.795 657.786 137.646 655.381C142.685 652.235 148.117 649.788 153.597 647.391C157.803 645.553 160.1 652.001 155.953 653.815C151.028 655.967 146.205 658.208 141.677 661.035ZM144.07 912.968C140.193 915.361 136.173 909.7 140.039 907.315C145.469 903.965 151.503 901.608 157.163 898.631C161.19 896.512 165.233 902.161 161.195 904.285C155.536 907.262 149.5 909.618 144.07 912.968ZM127.924 770.709C132.049 773.979 137.352 775.347 142.372 776.92C146.749 778.29 145.317 784.921 140.895 783.537C134.641 781.577 128.286 779.821 123.148 775.748C119.573 772.915 124.358 767.884 127.924 770.709ZM157.927 574.878C162.311 576.235 160.878 582.866 156.45 581.496C151.538 579.976 146.498 578.885 141.587 577.365C137.204 576.008 138.636 569.378 143.065 570.747C147.976 572.267 153.016 573.358 157.927 574.878ZM228.69 494.109C233.187 493.16 235.562 499.578 231.046 500.532C225.444 501.716 219.938 503.047 214.698 505.269C210.466 507.062 208.165 500.617 212.342 498.846C217.582 496.625 223.088 495.292 228.69 494.109ZM266.405 680.111C262.107 678.4 265.371 672.387 269.649 674.089C274.158 675.883 278.793 677.211 283.628 677.922C288.232 678.599 286.737 685.214 282.151 684.54C276.709 683.739 271.474 682.129 266.405 680.111ZM282.996 573.422C287.406 572.041 289.744 578.469 285.352 579.845C277.625 582.264 269.601 583.725 261.801 585.924C257.356 587.178 255.007 580.753 259.445 579.502C267.244 577.302 275.27 575.842 282.996 573.422ZM381.308 535.219C385.926 535.78 384.42 542.394 379.832 541.837C374.948 541.244 370.054 541.479 365.16 541.725C360.513 541.959 360.065 535.197 364.704 534.963C370.265 534.684 375.763 534.547 381.308 535.219ZM711.601 553.908C699.751 553.449 687.897 553.202 676.04 553.168C675.487 553.17 674.945 553.164 674.393 553.166C674.323 553.051 674.234 552.945 674.144 552.831C669.93 547.719 666.734 542.556 663.869 536.679C661.132 531.085 658.455 525.311 654.485 520.339C649.957 514.675 644.069 510.362 637.687 506.689C634.136 509.215 630.879 512.128 627.925 515.19C624.817 518.412 619.396 513.89 622.505 510.668C625.129 507.946 627.956 505.412 630.967 503.1C627.182 501.207 623.331 499.443 619.572 497.685C605.482 491.099 591.106 485.077 576.479 479.646C569.68 477.115 562.822 474.91 555.916 472.674C552.199 471.473 548.502 469.87 544.771 468.449C544.871 466.034 543.923 463.385 541.852 461.905C540.323 460.82 539.168 460.447 537.382 459.715C536.986 459.607 536.747 459.543 536.636 459.506C536.718 459.519 536.957 459.575 537.351 459.674C538.298 460.025 538.362 459.902 537.545 459.316C537.408 457.95 534.337 455.205 533.585 453.827C530.97 449.1 529.913 444.014 526.236 439.774C521.167 433.934 513.19 432.032 506.037 434.464C504.789 427.191 504.076 419.57 500.698 413.194C500.605 413.021 500.339 412.958 500.235 413.158C497.501 418.208 497.607 423.671 497.753 429.329C497.884 434.64 498.465 440.046 499.56 445.274C499.114 445.636 498.658 445.982 498.183 446.319C495.955 447.874 493.524 449.108 490.948 450.062C486.042 451.871 480.834 452.813 475.596 453.316C462.073 454.613 448.009 454.037 434.524 452.533C420.885 451.011 399.979 448.747 387.548 443.026C379.345 439.254 371.693 434.527 363.952 429.967C366.092 421.717 366.189 412.961 363.023 406.244C362.644 405.44 361.264 405.357 361.068 406.343C359.814 412.97 359.762 419.571 357.944 426.15C357.915 426.245 357.885 426.349 357.856 426.443C357.123 426.032 356.39 425.627 355.657 425.223C353.967 424.3 351.81 425.165 350.934 426.65C336.919 450.436 312.361 453.005 286.755 458.426C258.732 464.358 230.591 470.653 203.95 480.833C178.472 490.573 154.407 504.09 135.922 523.396C131.738 527.767 127.861 532.395 124.232 537.205C128.074 537.462 131.902 537.972 135.708 538.882C140.214 539.96 138.755 546.582 134.23 545.499C129.339 544.329 124.442 543.876 119.52 543.777C107.28 561.645 98.1468 581.665 90.4059 601.308C75.5571 638.969 66.9183 678.712 64.4157 718.856C67.1574 717.11 69.9555 715.438 72.833 713.868C76.8313 711.688 80.8681 717.338 76.8655 719.521C72.4206 721.945 68.1223 724.586 63.9766 727.423C63.265 744.976 63.7171 762.582 65.3426 780.101C69.215 821.866 78.1357 864.605 94.4416 903.814C102.439 923.058 112.598 942.032 126.898 957.911C133.369 965.104 140.601 971.522 148.966 976.754C153.016 979.296 157.273 981.532 161.728 983.375C167.469 985.763 174.774 986.275 179.823 989.809C181.483 990.973 182.81 992.55 183.854 994.354C183.56 997.897 183.734 1001.42 184.998 1004.89C185.397 1005.97 186.34 1006.82 187.46 1007.2C187.498 1007.5 187.518 1007.8 187.538 1008.08C187.547 1008.22 187.765 1008.24 187.783 1008.11C187.811 1007.84 187.838 1007.58 187.865 1007.3C188.224 1007.4 188.597 1007.43 188.975 1007.41C202.668 1006.76 216.353 1005.76 230.031 1004.62C228.766 1001.63 227.414 998.672 226.107 995.683C224.331 991.623 231.178 989.511 232.938 993.533C234.467 997.028 236.053 1000.49 237.494 1004C252.146 1002.74 266.787 1001.38 281.412 1000.19C312.52 997.631 343.661 995.73 374.801 993.532C423.158 990.113 471.8 985.668 520.427 985.136C521.88 981.713 523.537 978.356 525.095 974.973C526.933 970.981 533.382 974.091 531.551 978.07C530.467 980.421 529.338 982.745 528.274 985.09C538.129 985.071 547.984 985.205 557.834 985.571C574.641 986.194 591.364 987.966 608.163 988.743C625.244 989.538 641.825 988.401 658.482 984.919C661.478 984.292 663.147 982.485 663.743 980.317C663.768 980.308 663.786 980.291 663.801 980.263C664.603 979.273 665.362 978.447 666.153 977.719C667.113 977.06 668.16 976.489 669.4 975.968C671.713 975.003 674.147 974.362 676.629 973.888C679.361 973.361 682.152 973.184 684.888 972.724C687.194 972.327 689.438 971.797 691.674 971.176C695.696 970.056 699.491 968.668 703.241 966.891C706.51 965.343 709.413 963.212 712.134 960.91C717.79 956.544 722.576 951.095 726.702 945.475C729.103 942.19 731.343 938.794 733.348 935.276C736.844 929.178 739.747 922.882 742.684 916.534C743.777 914.642 744.761 912.711 745.647 910.745C738.973 909.267 732.259 908.127 725.306 908.375C720.658 908.54 720.204 901.779 724.85 901.613C732.824 901.328 740.477 902.692 748.103 904.391C748.407 903.464 748.695 902.531 748.956 901.587C749.718 899.607 750.323 897.583 750.8 895.54C751.098 894.609 751.398 893.678 751.697 892.747C752.295 889.545 752.893 886.335 753.499 883.124C754.788 877.97 755.73 872.758 756.325 867.495C756.887 864.023 757.267 860.536 757.446 857.016C758.136 848.475 758.593 839.963 758.088 831.389C757.624 826.112 756.908 820.857 755.942 815.639C755.44 812.086 754.759 808.559 753.927 805.065C752.799 799.864 751.683 794.714 750.046 789.606C748.846 786.157 747.645 782.706 746.445 779.256C743.548 772.085 740.227 765.078 736.484 758.255C736.275 757.825 735.299 756.907 734.749 756.927C734.334 756.939 733.781 757.324 734.002 757.788C734.023 757.829 734.044 757.878 734.066 757.92C733.85 757.532 733.642 757.136 733.426 756.748C733.239 756.384 732.558 755.673 732.072 755.706C732.045 755.708 732.017 755.709 731.982 755.719C732.103 755.629 732.213 755.512 732.321 755.38C735.314 751.624 737.096 746.792 739.132 742.517C740.82 738.988 742.388 735.279 742.649 731.373C742.878 727.944 742.031 724.62 739.565 721.98C736.759 718.976 731.775 717.754 734.182 713.086C736.917 707.774 741.149 703.073 736.239 697.445C733.74 694.578 729.989 693.124 727.11 690.666C723.799 687.823 722.05 683.884 721.855 679.781C722.051 679.872 722.3 679.81 722.373 679.551C724.488 672.015 722.048 663.981 718.885 656.907C717.162 653.069 713.997 652.151 710.389 652.14C724.039 622.826 736.658 593.105 747.648 562.798C748.015 561.805 748.373 560.812 748.73 559.818C749.264 558.332 747.8 556.465 746.237 556.221C734.852 554.484 723.105 554.342 711.601 553.908Z" fill="black"/>
<path fill-rule="evenodd" clip-rule="evenodd" d="M630.078 561.089L627.078 562.589L621.578 569.589L617.578 577.089L611.578 589.089L606.578 601.589L580.549 647.958C580.549 647.958 593.472 649.545 598.553 651.631C603.635 653.716 626.753 685.48 626.753 685.48L630.126 697.148L624.932 709.074L628.758 716.77C628.758 716.77 630.793 711.337 636.44 706.927C642.086 702.517 654.687 695.12 654.687 695.12C654.687 695.12 650.686 697.42 650.517 694.759C643.194 694.248 644.496 672.884 652.369 668.211C660.241 663.538 702.536 655.193 702.536 655.193L721.382 612.048L741.015 563.874L728.869 563.027L712.674 561.898L688.382 560.205L630.078 561.089Z" fill="#9DDADB"/>
<path d="M364.078 396.588L518.578 414.589L518.578 434.589C518.578 434.589 501.871 448.888 489.078 454.089C471.6 461.194 459.919 460.6 441.078 459.589C404.001 457.599 353.078 423.589 353.078 423.589L360.154 408.148L364.078 396.588Z" fill="#845161"/>
<defs>
<linearGradient id="paint0_linear_12_206" x1="286.536" y1="166.925" x2="635.895" y2="166.925" gradientUnits="userSpaceOnUse">
<stop stop-color="#16243F"/>
<stop offset="1" stop-color="#9DDADB"/>
</linearGradient>
<linearGradient id="paint1_linear_12_206" x1="528.934" y1="58.8285" x2="637.925" y2="232.525" gradientUnits="userSpaceOnUse">
<stop stop-color="#16243F"/>
<stop offset="1" stop-color="#9DDADB"/>
</linearGradient>
</defs>
</svg>
